<svg width="458" height="443" viewBox="0 0 458 443" fill="none" xmlns="http://www.w3.org/2000/svg">
<path d="M228.536 3C163.611 34.5843 111.114 69.9165 77.3034 104.78C42.6802 139.976 26.7429 174.702 16.0776 212.868C5.56906 253.041 1.37513 293.824 3.5628 334.566C7.86693 376.183 19.1199 418.943 88.4353 440.083" stroke="white" stroke-width="4.57081" stroke-linecap="round" stroke-linejoin="round"/>
<path d="M229.953 28.1736C175.901 55.2442 132.807 85.9371 103.543 117.601C73.8115 149.46 57.9087 182.278 47.278 218.113C36.487 255.376 32.6382 293.371 35.8177 331.252C40.8132 369.521 54.2269 408.007 113.949 429.582" stroke="white" stroke-width="4.57081" stroke-linecap="round" stroke-linejoin="round"/>
<path d="M236.469 51.2563C143.818 98.907 96.9397 157.493 78.2539 223.45C68.5048 256.588 64.0106 292.321 68.5394 327.722C74.0708 362.711 88.608 397.381 139.462 419.08" stroke="white" stroke-width="4.57081" stroke-linecap="round" stroke-linejoin="round"/>
<path d="M247.411 72.5449C169.038 114.185 127.449 167.675 109.42 228.706C100.38 259.239 96.5594 291.932 101.711 324.008C107.519 355.832 122.28 387.039 164.976 408.579" stroke="white" stroke-width="4.57081" stroke-linecap="round" stroke-linejoin="round"/>
<path d="M262.07 92.325C192.927 130.023 159.549 177.205 140.88 233.848C125.254 289.235 124.355 354.095 190.49 398.089" stroke="white" stroke-width="4.57081" stroke-linecap="round" stroke-linejoin="round"/>
<path d="M279.718 110.894C220.567 144.306 188.969 187.832 173.101 238.671C159.289 288.664 161.243 345.97 216.021 387.61" stroke="white" stroke-width="4.57081" stroke-linecap="round" stroke-linejoin="round"/>
<path d="M299.666 128.572C248.621 158.442 219.288 198.082 205.909 243.253C193.774 287.898 197.56 338.086 241.552 377.132" stroke="white" stroke-width="4.57081" stroke-linecap="round" stroke-linejoin="round"/>
<path d="M321.152 145.655C277.074 172.417 250.523 207.966 239.201 247.629C228.553 287.018 233.116 330.521 267.117 366.665" stroke="white" stroke-width="4.57081" stroke-linecap="round" stroke-linejoin="round"/>
<path d="M343.485 162.475C270.056 209.36 244.698 289.727 292.683 356.22" stroke="white" stroke-width="4.57081" stroke-linecap="round" stroke-linejoin="round"/>
<path d="M365.887 179.365C303.486 220.97 284.61 287.384 318.265 345.788" stroke="white" stroke-width="4.57081" stroke-linecap="round" stroke-linejoin="round"/>
<path d="M387.633 196.688C337.159 232.432 322.76 285.773 343.9 335.389" stroke="white" stroke-width="4.57081" stroke-linecap="round" stroke-linejoin="round"/>
<path d="M407.978 214.823C370.122 244.076 358.714 285.053 369.569 325.059" stroke="white" stroke-width="4.57081" stroke-linecap="round" stroke-linejoin="round"/>
<path d="M426.249 234.191C401.185 256.291 392.075 285.384 395.342 314.832" stroke="white" stroke-width="4.57081" stroke-linecap="round" stroke-linejoin="round"/>
<path d="M441.892 255.343C428.842 269.558 422.411 286.881 421.271 304.799" stroke="white" stroke-width="4.57081" stroke-linecap="round" stroke-linejoin="round"/>
<path d="M454.77 278.894C451.478 284.235 449.034 289.788 447.475 295.463" stroke="white" stroke-width="4.57081" stroke-linecap="round" stroke-linejoin="round"/>
</svg>
