<svg width="100" height="100" viewBox="0 0 100 100" fill="none" xmlns="http://www.w3.org/2000/svg">
<g id="icons8-google-maps-old-100 1">
<path id="Vector" d="M13 27C12.4696 27 11.9609 27.2107 11.5858 27.5858C11.2107 27.9609 11 28.4696 11 29C11 29.5304 11.2107 30.0391 11.5858 30.4142C11.9609 30.7893 12.4696 31 13 31C13.5304 31 14.0391 30.7893 14.4142 30.4142C14.7893 30.0391 15 29.5304 15 29C15 28.4696 14.7893 27.9609 14.4142 27.5858C14.0391 27.2107 13.5304 27 13 27Z" fill="#EE3E54"/>
<path id="Vector_2" d="M77 12C76.7348 12 76.4804 12.1054 76.2929 12.2929C76.1054 12.4804 76 12.7348 76 13C76 13.2652 76.1054 13.5196 76.2929 13.7071C76.4804 13.8946 76.7348 14 77 14C77.2652 14 77.5196 13.8946 77.7071 13.7071C77.8946 13.5196 78 13.2652 78 13C78 12.7348 77.8946 12.4804 77.7071 12.2929C77.5196 12.1054 77.2652 12 77 12Z" fill="#F1BC19"/>
<path id="Vector_3" d="M83 11C81.9391 11 80.9217 11.4214 80.1716 12.1716C79.4214 12.9217 79 13.9391 79 15C79 16.0609 79.4214 17.0783 80.1716 17.8284C80.9217 18.5786 81.9391 19 83 19C84.0609 19 85.0783 18.5786 85.8284 17.8284C86.5786 17.0783 87 16.0609 87 15C87 13.9391 86.5786 12.9217 85.8284 12.1716C85.0783 11.4214 84.0609 11 83 11Z" fill="#F1BC19"/>
<path id="Vector_4" d="M87 22C86.4696 22 85.9609 22.2107 85.5858 22.5858C85.2107 22.9609 85 23.4696 85 24C85 24.5304 85.2107 25.0391 85.5858 25.4142C85.9609 25.7893 86.4696 26 87 26C87.5304 26 88.0391 25.7893 88.4142 25.4142C88.7893 25.0391 89 24.5304 89 24C89 23.4696 88.7893 22.9609 88.4142 22.5858C88.0391 22.2107 87.5304 22 87 22Z" fill="#EE3E54"/>
<path id="Vector_5" d="M81 74C80.4696 74 79.9609 74.2107 79.5858 74.5858C79.2107 74.9609 79 75.4696 79 76C79 76.5304 79.2107 77.0391 79.5858 77.4142C79.9609 77.7893 80.4696 78 81 78C81.5304 78 82.0391 77.7893 82.4142 77.4142C82.7893 77.0391 83 76.5304 83 76C83 75.4696 82.7893 74.9609 82.4142 74.5858C82.0391 74.2107 81.5304 74 81 74ZM15 59C13.9391 59 12.9217 59.4214 12.1716 60.1716C11.4214 60.9217 11 61.9391 11 63C11 64.0609 11.4214 65.0783 12.1716 65.8284C12.9217 66.5786 13.9391 67 15 67C16.0609 67 17.0783 66.5786 17.8284 65.8284C18.5786 65.0783 19 64.0609 19 63C19 61.9391 18.5786 60.9217 17.8284 60.1716C17.0783 59.4214 16.0609 59 15 59Z" fill="#FBCD59"/>
<path id="Vector_6" d="M25 85C24.4696 85 23.9609 85.2107 23.5858 85.5858C23.2107 85.9609 23 86.4696 23 87C23 87.5304 23.2107 88.0391 23.5858 88.4142C23.9609 88.7893 24.4696 89 25 89C25.5304 89 26.0391 88.7893 26.4142 88.4142C26.7893 88.0391 27 87.5304 27 87C27 86.4696 26.7893 85.9609 26.4142 85.5858C26.0391 85.2107 25.5304 85 25 85Z" fill="#EE3E54"/>
<path id="Vector_7" d="M18.5 51C17.837 51 17.2011 51.2634 16.7322 51.7322C16.2634 52.2011 16 52.837 16 53.5C16 54.163 16.2634 54.7989 16.7322 55.2678C17.2011 55.7366 17.837 56 18.5 56C19.163 56 19.7989 55.7366 20.2678 55.2678C20.7366 54.7989 21 54.163 21 53.5C21 52.837 20.7366 52.2011 20.2678 51.7322C19.7989 51.2634 19.163 51 18.5 51Z" fill="white"/>
<path id="Vector_8" d="M21 66C20.7348 66 20.4804 66.1054 20.2929 66.2929C20.1054 66.4804 20 66.7348 20 67C20 67.2652 20.1054 67.5196 20.2929 67.7071C20.4804 67.8946 20.7348 68 21 68C21.2652 68 21.5196 67.8946 21.7071 67.7071C21.8946 67.5196 22 67.2652 22 67C22 66.7348 21.8946 66.4804 21.7071 66.2929C21.5196 66.1054 21.2652 66 21 66Z" fill="#F1BC19"/>
<path id="Vector_9" d="M80 33C79.7348 33 79.4804 33.1054 79.2929 33.2929C79.1054 33.4804 79 33.7348 79 34C79 34.2652 79.1054 34.5196 79.2929 34.7071C79.4804 34.8946 79.7348 35 80 35C80.2652 35 80.5196 34.8946 80.7071 34.7071C80.8946 34.5196 81 34.2652 81 34C81 33.7348 80.8946 33.4804 80.7071 33.2929C80.5196 33.1054 80.2652 33 80 33Z" fill="white"/>
<path id="Vector_10" d="M35.304 71.2999C31.662 71.2999 28.7 68.3369 28.7 64.6959V37.3049C28.7 33.6629 31.662 30.7009 35.304 30.7009H62.695C66.3369 30.7009 69.299 33.6639 69.299 37.3049V64.6959C69.299 68.3379 66.3359 71.2999 62.695 71.2999H35.304Z" fill="#67BA8C"/>
<path id="Vector_11" d="M62.696 31.4C65.952 31.4 68.6 34.049 68.6 37.305V64.696C68.6 67.952 65.951 70.601 62.696 70.601H35.304C32.048 70.601 29.4 67.952 29.4 64.696V37.304C29.4 34.048 32.049 31.399 35.304 31.399L62.696 31.4ZM62.696 30H35.304C31.287 30 28 33.287 28 37.304V64.695C28 68.713 31.287 72 35.304 72H62.695C66.713 72 70 68.713 70 64.696V37.304C70 33.287 66.713 30 62.696 30Z" fill="#472B29"/>
<path id="Vector_12" d="M66.1321 48.6539C65.8561 48.6539 65.6321 48.4299 65.6321 48.1539V44.6179C65.6321 44.3419 65.8561 44.1179 66.1321 44.1179C66.4081 44.1179 66.6321 44.3419 66.6321 44.6179V48.1539C66.6321 48.4309 66.4081 48.6539 66.1321 48.6539Z" fill="#472B29"/>
<g id="Group">
<path id="Vector_13" d="M66.1321 42.38C65.8561 42.38 65.6321 42.156 65.6321 41.88V40.054C65.6321 39.778 65.8561 39.554 66.1321 39.554C66.4081 39.554 66.6321 39.778 66.6321 40.054V41.88C66.6321 42.156 66.4081 42.38 66.1321 42.38Z" fill="#472B29"/>
</g>
<g id="Group_2">
<path id="Vector_14" d="M49.703 54.772C49.703 54.772 38.574 65.464 34.199 70.48C34.635 70.583 35.088 70.642 35.555 70.642H62.937C63.668 70.642 64.366 70.503 65.014 70.26C60.513 65.157 49.703 54.772 49.703 54.772Z" fill="#3E7BF1"/>
<path id="Vector_15" d="M62.938 70.893H35.555C35.094 70.893 34.618 70.836 34.142 70.724L33.738 70.629L34.01 70.3161C38.341 65.3481 49.417 54.699 49.529 54.591L49.702 54.425L49.875 54.591C49.983 54.695 60.745 65.0421 65.201 70.0951L65.441 70.367L65.101 70.4941C64.396 70.7591 63.668 70.893 62.938 70.893ZM34.673 70.32C34.971 70.368 35.266 70.392 35.555 70.392H62.937C63.488 70.392 64.039 70.309 64.578 70.145C60.322 65.38 51.084 56.45 49.703 55.119C48.305 56.467 38.855 65.602 34.673 70.32Z" fill="#472B29"/>
</g>
<g id="Group_3">
<path id="Vector_16" d="M46.6221 54.0829L63.1701 70.6309C65.1481 70.5539 66.8801 69.5119 67.9031 67.9569L50.3261 50.3789L46.6221 54.0829Z" fill="#FFFEF4"/>
<path id="Vector_17" d="M63.07 70.8849L46.269 54.0829L50.326 50.0249L68.225 67.9239L68.113 68.0939C67.014 69.7609 65.171 70.8019 63.18 70.8799L63.07 70.8849ZM46.976 54.0829L63.269 70.3759C64.99 70.2749 66.581 69.3929 67.581 67.9869L50.326 50.7319L46.976 54.0829Z" fill="#472B29"/>
</g>
<g id="Group_4">
<path id="Vector_18" d="M51.9849 52.4899C51.9849 52.4899 62.8429 63.7929 67.8089 68.0949C68.4829 67.1309 68.8819 65.9609 68.8819 64.6979V37.3159C68.8819 36.8979 68.8369 36.4899 68.7549 36.0959C64.4109 39.5549 51.9849 52.4899 51.9849 52.4899Z" fill="#BEBACB"/>
<path id="Vector_19" d="M67.854 68.465L67.644 68.283C62.727 64.023 51.913 52.776 51.803 52.663L51.637 52.49L51.803 52.317C51.929 52.188 64.292 39.331 68.6 35.9L68.917 35.647L69 36.045C69.087 36.467 69.132 36.895 69.132 37.316V64.699C69.132 65.969 68.745 67.192 68.014 68.239L67.854 68.465ZM52.331 52.49C53.7 53.91 63.111 63.644 67.758 67.719C68.331 66.811 68.632 65.772 68.632 64.698V37.315C68.632 37.065 68.614 36.811 68.581 36.559C64.327 40.079 53.787 50.98 52.331 52.49Z" fill="#472B29"/>
</g>
<g id="Group_5">
<path id="Vector_20" d="M35.2691 70.6281L68.8681 37.0291C68.7731 35.0591 67.7211 33.3401 66.1621 32.3281L30.5681 67.9211C31.5791 69.4801 33.2991 70.5331 35.2691 70.6281Z" fill="#FDE751"/>
<path id="Vector_21" d="M35.367 70.8831L35.256 70.8781C33.272 70.7821 31.441 69.7281 30.358 68.0571L30.248 67.8871L30.391 67.7441L66.128 32.0081L66.297 32.1181C67.968 33.2021 69.022 35.0341 69.117 37.0171L69.122 37.1271L35.367 70.8831ZM30.89 67.9521C31.876 69.3611 33.456 70.2561 35.171 70.3721L68.611 36.9321C68.495 35.2181 67.6 33.6381 66.192 32.6511L30.89 67.9521Z" fill="#472B29"/>
</g>
<g id="Group_6">
<path id="Vector_22" d="M39.8251 40.3751V42.7731H43.243C42.793 44.2261 41.5811 45.2641 39.8251 45.2641C37.7351 45.2641 36.041 43.5701 36.041 41.4801C36.041 39.3851 37.7351 37.6921 39.8251 37.6921C40.7651 37.6921 41.626 38.0401 42.285 38.6061L44.05 36.8411C42.936 35.8251 41.4561 35.2051 39.8251 35.2051C36.3581 35.2051 33.55 38.0171 33.55 41.4801C33.55 44.9431 36.3581 47.7551 39.8251 47.7551C45.3161 47.7551 46.256 42.8301 45.739 40.3841L39.8251 40.3751Z" fill="white"/>
<path id="Vector_23" d="M39.8251 48.0051C36.2271 48.0051 33.3 45.0781 33.3 41.4811C33.3 37.8841 36.2271 34.9561 39.8251 34.9561C41.4561 34.9561 43.0161 35.5601 44.2191 36.6571L44.412 36.8341L42.299 38.9471L42.1231 38.7961C41.4811 38.2461 40.6651 37.9431 39.8251 37.9431C37.8771 37.9431 36.291 39.5301 36.291 41.4811C36.291 43.4291 37.8761 45.0141 39.8251 45.0141C41.2481 45.0141 42.3701 44.2771 42.8881 43.0231H39.5751V40.1261L45.9421 40.1351L45.9841 40.3331C46.3191 41.9181 46.052 44.2621 44.702 45.9281C43.583 47.3061 41.9421 48.0051 39.8251 48.0051ZM39.8251 35.4551C36.5031 35.4551 33.8 38.1581 33.8 41.4801C33.8 44.8021 36.5031 47.5041 39.8251 47.5041C41.784 47.5041 43.295 46.8671 44.313 45.6101C45.504 44.1401 45.7811 42.0921 45.5321 40.6321L40.0751 40.6231V42.5201H43.583L43.482 42.8441C42.964 44.5141 41.5971 45.5111 39.8251 45.5111C37.6011 45.5111 35.791 43.7011 35.791 41.4781C35.791 39.2511 37.6011 37.4401 39.8251 37.4401C40.7071 37.4401 41.5661 37.7321 42.2681 38.2671L43.6851 36.8511C42.6031 35.9501 41.2431 35.4551 39.8251 35.4551Z" fill="#472B29"/>
</g>
<g id="Group_7">
<path id="Vector_24" d="M62.4239 23.511C56.1219 23.511 51.0149 28.618 51.0149 34.92C51.0149 42.693 59.7589 45.527 61.6619 57.569C61.7869 58.344 61.7959 58.879 62.4239 58.879C63.0519 58.879 63.0609 58.344 63.1859 57.569C65.0889 45.527 73.8329 42.692 73.8329 34.92C73.8329 28.618 68.7259 23.511 62.4239 23.511Z" fill="#EA4989"/>
<path id="Vector_25" d="M62.4239 59.379C61.4299 59.379 61.2989 58.509 61.2029 57.874L61.1689 57.648C60.1879 51.441 57.3549 47.732 54.8559 44.46C52.5269 41.409 50.5149 38.775 50.5149 34.92C50.5149 28.354 55.8579 23.011 62.4239 23.011C68.9899 23.011 74.3329 28.354 74.3329 34.92C74.3329 38.775 72.3209 41.409 69.9919 44.459C67.4929 47.732 64.6609 51.441 63.6799 57.647L63.6449 57.874C63.5499 58.509 63.4189 59.379 62.4239 59.379ZM62.4239 24.011C56.4079 24.011 51.5149 28.905 51.5149 34.92C51.5149 38.438 53.4309 40.946 55.6509 43.853C58.2219 47.22 61.1359 51.037 62.1569 57.492L62.1929 57.726C62.2299 57.971 62.2799 58.307 62.3439 58.374L62.5119 58.368C62.5699 58.306 62.6199 57.971 62.6569 57.724L62.6939 57.49C63.7139 51.035 66.6279 47.219 69.1989 43.852C71.4179 40.946 73.3339 38.437 73.3339 34.919C73.3329 28.904 68.4389 24.011 62.4239 24.011Z" fill="#472B29"/>
</g>
<g id="Group_8">
<path id="Vector_26" d="M66.4169 34.92C66.4169 37.126 64.6299 38.913 62.4239 38.913C60.2179 38.913 58.4309 37.126 58.4309 34.92C58.4309 32.714 60.2179 30.927 62.4239 30.927C64.6299 30.927 66.4169 32.714 66.4169 34.92Z" fill="#FFFEF4"/>
<path id="Vector_27" d="M62.4239 39.413C59.9459 39.413 57.9309 37.397 57.9309 34.92C57.9309 32.443 59.9469 30.427 62.4239 30.427C64.9009 30.427 66.9169 32.443 66.9169 34.92C66.9169 37.397 64.9009 39.413 62.4239 39.413ZM62.4239 31.427C60.4979 31.427 58.9309 32.994 58.9309 34.92C58.9309 36.846 60.4979 38.413 62.4239 38.413C64.3499 38.413 65.9169 36.846 65.9169 34.92C65.9169 32.994 64.3499 31.427 62.4239 31.427Z" fill="#472B29"/>
</g>
<g id="Group_9">
<path id="Vector_28" d="M63.327 48.215C63.248 48.215 63.169 48.196 63.095 48.157C62.851 48.029 62.756 47.727 62.885 47.482C64.311 44.761 67.011 41.251 68.164 39.752C68.422 39.415 68.599 39.187 68.657 39.1C69.496 37.859 69.939 36.409 69.939 34.906C69.939 34.63 70.163 34.406 70.439 34.406C70.715 34.406 70.939 34.63 70.939 34.906C70.939 36.609 70.437 38.254 69.486 39.66C69.423 39.753 69.234 40 68.956 40.362C67.819 41.841 65.156 45.303 63.769 47.948C63.681 48.117 63.507 48.215 63.327 48.215Z" fill="#472B29"/>
</g>
<g id="Group_10">
<path id="Vector_29" d="M70.1491 33.2651C69.9291 33.2651 69.7281 33.1191 69.6681 32.8981C69.4941 32.2701 69.2361 31.6651 68.9011 31.0971C68.5441 30.4931 68.1041 29.9421 67.5941 29.4591C67.3941 29.2701 67.3851 28.9531 67.5741 28.7521C67.7641 28.5531 68.0811 28.5421 68.2811 28.7321C68.8581 29.2791 69.3571 29.9031 69.7611 30.5881C70.1401 31.2311 70.4331 31.9181 70.6291 32.6311C70.7031 32.8971 70.5471 33.1721 70.2801 33.2451C70.2381 33.2591 70.1931 33.2651 70.1491 33.2651Z" fill="#472B29"/>
</g>
<g id="Group_11">
<path id="Vector_30" d="M66.115 28.298C66.037 28.298 65.959 28.28 65.886 28.242C64.814 27.686 63.654 27.405 62.439 27.405C62.163 27.405 61.939 27.181 61.939 26.905C61.939 26.629 62.163 26.405 62.439 26.405C63.796 26.405 65.147 26.733 66.345 27.353C66.591 27.48 66.687 27.782 66.56 28.027C66.471 28.199 66.296 28.298 66.115 28.298Z" fill="#472B29"/>
</g>
</g>
</svg>
